<?xml version="1.0" standalone="no"?>
<!DOCTYPE svg PUBLIC "-//W3C//DTD SVG 20010904//EN"
 "http://www.w3.org/TR/2001/REC-SVG-20010904/DTD/svg10.dtd">
<svg version="1.0" xmlns="http://www.w3.org/2000/svg"
 width="530.000000pt" height="530.000000pt" viewBox="0 0 530.000000 530.000000"
 preserveAspectRatio="xMidYMid meet">
<metadata>
Created by potrace 1.14, written by Peter Selinger 2001-2017
</metadata>
<g transform="translate(0.000000,530.000000) scale(0.100000,-0.100000)"
fill="#000000" stroke="none">
<path d="M2405 5274 c-16 -2 -84 -11 -150 -20 -540 -73 -1049 -324 -1454 -718
-411 -402 -664 -888 -761 -1466 -30 -177 -38 -507 -16 -692 100 -863 580
-1580 1345 -2007 311 -174 638 -281 1021 -332 153 -21 488 -16 655 10 584 88
1081 336 1485 741 405 404 652 900 742 1485 30 198 30 522 0 720 -104 678
-430 1254 -948 1669 -405 324 -830 514 -1324 591 -100 16 -521 29 -595 19z
m578 -213 c260 -46 445 -105 672 -216 761 -370 1264 -1097 1346 -1945 14 -150
7 -432 -16 -575 -107 -689 -501 -1300 -1078 -1673 -274 -177 -581 -295 -918
-353 -181 -31 -563 -34 -734 -6 -535 89 -972 308 -1334 668 -377 375 -608 827
-698 1364 -25 155 -26 551 0 715 81 509 299 945 657 1314 144 148 238 226 403
336 322 215 686 345 1087 389 143 16 477 6 613 -18z"/>
<path d="M2315 4551 c-177 -33 -266 -59 -390 -116 -16 -8 -64 -27 -106 -44
-42 -16 -92 -39 -112 -50 -106 -60 -283 -179 -350 -236 -93 -79 -245 -248
-264 -293 -13 -31 -12 -35 4 -48 10 -7 29 -14 42 -14 14 0 61 -24 105 -52 138
-89 150 -102 170 -168 10 -33 22 -60 26 -60 4 0 10 -11 14 -23 13 -52 96 -108
205 -141 118 -35 129 -57 143 -285 5 -91 14 -170 19 -175 5 -6 9 -65 9 -133 0
-101 3 -125 15 -129 13 -5 15 -40 15 -226 0 -141 -4 -235 -12 -260 -15 -51
-67 -100 -149 -141 l-64 -32 110 -5 c121 -6 169 6 179 44 3 12 6 342 6 734 l0
713 -25 23 c-29 27 -84 36 -230 36 -55 0 -106 4 -113 8 -9 7 -12 46 -10 163
l3 154 313 3 312 2 0 240 0 240 145 0 145 0 0 -240 0 -240 105 0 105 0 0 240
0 240 145 0 145 0 0 -243 0 -244 93 -11 c325 -40 533 -173 598 -382 63 -204
18 -384 -133 -533 -65 -64 -76 -78 -61 -83 169 -58 301 -174 360 -314 26 -61
27 -75 28 -210 0 -127 -3 -154 -24 -213 -67 -195 -238 -345 -477 -420 -87 -28
-262 -57 -338 -57 l-46 0 0 -245 0 -245 -145 0 -145 0 0 240 0 240 -105 0
-105 0 0 -240 0 -240 -145 0 -145 0 0 240 0 240 -297 0 c-164 0 -304 4 -312 9
-12 8 -11 31 8 161 12 84 20 155 16 158 -9 10 -33 -23 -62 -87 -23 -48 -25
-62 -20 -134 4 -67 10 -87 34 -121 39 -56 107 -95 187 -109 58 -10 66 -14 66
-33 0 -18 7 -22 43 -26 23 -3 59 -14 81 -24 40 -20 49 -35 76 -134 7 -25 15
-52 18 -60 3 -8 4 -18 4 -22 -1 -5 3 -8 8 -8 6 0 10 -7 10 -16 0 -37 107 -112
170 -120 14 -2 46 -7 71 -12 25 -5 54 -8 65 -6 40 5 90 13 114 18 30 5 178 19
203 18 9 0 17 4 17 9 0 15 53 -3 70 -24 47 -58 237 -15 345 77 82 70 190 178
204 205 9 17 21 21 59 21 45 0 48 -2 81 -49 24 -36 46 -55 80 -69 54 -23 110
-40 131 -40 8 0 30 -3 48 -6 17 -2 32 0 32 5 0 5 7 9 16 9 22 0 139 96 231
188 194 195 342 439 434 712 37 110 49 178 30 166 -5 -4 -21 -2 -34 3 -17 7
-27 7 -29 0 -2 -6 -21 -4 -50 5 -50 15 -68 8 -68 -26 0 -16 -3 -16 -41 -3 -56
20 -56 20 -63 -24 -3 -22 -14 -47 -23 -57 -16 -15 -17 -15 -25 2 -6 13 -7 9
-3 -13 4 -32 -8 -45 -19 -20 -4 6 -4 2 -2 -11 2 -12 0 -20 -5 -16 -5 3 -9 0
-9 -7 0 -7 -3 -10 -6 -6 -3 3 -1 20 6 39 8 24 9 57 2 118 -5 47 -6 87 -1 90
12 8 23 100 11 100 -6 0 -12 -6 -15 -12 -3 -7 -5 2 -4 21 0 19 -6 37 -14 42
-34 19 -50 36 -54 57 -7 38 -56 121 -106 177 -87 99 -92 110 -87 176 4 52 2
59 -14 59 -23 0 -23 -3 9 77 23 60 26 83 27 188 1 137 -11 199 -60 300 -68
143 -190 240 -397 316 -45 17 -99 41 -120 55 -31 20 -36 29 -31 48 3 13 0 35
-7 48 -8 12 -17 55 -21 93 -8 70 -11 87 -20 115 -10 27 -31 105 -33 120 -2 8
-8 35 -14 60 -7 25 -13 50 -14 57 -2 7 -6 16 -10 19 -4 4 -7 15 -7 25 0 13
-14 21 -57 30 -49 11 -54 14 -33 20 l25 7 -27 1 c-16 1 -28 6 -28 11 0 6 -13
10 -30 10 -20 0 -30 5 -30 15 0 8 6 15 13 16 6 1 -4 5 -23 11 -19 5 -136 11
-260 13 -187 3 -242 1 -325 -14z"/>
<path d="M2440 3160 l0 -300 133 0 c207 0 369 34 459 97 106 73 138 261 61
361 -75 99 -226 142 -495 142 l-158 0 0 -300z m479 111 c42 -22 69 -56 77
-101 8 -35 -29 -104 -73 -136 -78 -56 -247 -85 -229 -38 3 7 -8 27 -24 43 -27
26 -30 36 -30 91 0 68 19 112 56 128 12 6 51 9 87 6 49 -3 68 0 77 11 15 19
13 19 59 -4z"/>
<path d="M2440 2247 c0 -287 2 -326 16 -331 51 -20 426 4 548 35 97 25 126 39
178 91 112 112 123 279 25 394 -15 18 -56 46 -90 62 -108 52 -186 64 -444 69
l-233 5 0 -325z m366 134 c5 -6 27 -12 49 -15 86 -10 182 -52 214 -92 39 -49
19 -143 -37 -176 -15 -9 -37 -25 -49 -36 -42 -35 -191 -56 -293 -41 -29 5 -39
13 -58 50 -21 39 -23 54 -19 139 3 52 8 103 12 113 19 45 150 88 181 58z"/>
</g>
</svg>
